<?xml version="1.0" encoding="UTF-8"?>
<svg id="Capa_1" xmlns="http://www.w3.org/2000/svg" version="1.1" viewBox="0 0 118.39 96.21">
  <!-- Generator: Adobe Illustrator 29.3.1, SVG Export Plug-In . SVG Version: 2.1.0 Build 151)  -->
  <defs>
    <style>
      .st0 {
        fill: #faf1e4;
      }
    </style>
  </defs>
  <path class="st0" d="M118.39,11.39c-4.36,1.93-9.04,3.24-13.95,3.83,5.01-3.01,8.87-7.77,10.68-13.44-4.69,2.78-9.89,4.81-15.42,5.89-4.43-4.72-10.74-7.67-17.73-7.67-13.41,0-24.29,10.88-24.29,24.29,0,1.9.21,3.76.63,5.54-20.19-1.01-38.08-10.68-50.06-25.38-2.09,3.59-3.29,7.76-3.29,12.21,0,8.43,4.29,15.86,10.81,20.22-3.98-.13-7.73-1.22-11-3.04,0,.1,0,.2,0,.31,0,11.77,8.37,21.58,19.48,23.82-2.04.56-4.18.85-6.4.85-1.57,0-3.09-.15-4.57-.44,3.09,9.65,12.06,16.67,22.69,16.87-8.31,6.51-18.79,10.4-30.17,10.4-1.96,0-3.89-.11-5.79-.34,10.75,6.89,23.52,10.91,37.23,10.91,44.68,0,69.11-37.01,69.11-69.11,0-1.05-.02-2.1-.07-3.14,4.75-3.43,8.86-7.7,12.12-12.57Z"/>
</svg>