<?xml version="1.0" encoding="UTF-8"?>
<svg id="Capa_1" xmlns="http://www.w3.org/2000/svg" version="1.1" viewBox="0 0 105.06 104.98">
  <!-- Generator: Adobe Illustrator 29.3.1, SVG Export Plug-In . SVG Version: 2.1.0 Build 151)  -->
  <defs>
    <style>
      .st0 {
        fill: #faf1e4;
        fill-rule: evenodd;
      }
    </style>
  </defs>
  <path class="st0" d="M0,52.51c.14-7.17.18-14.35.4-21.48.2-6.58,1.49-12.87,5.3-18.41C10.26,6,16.74,2.3,24.59.98,30.31.02,36.05.06,41.79.02c9.13-.04,18.25-.04,27.38.08,5.5.08,11.04.28,16.32,2.11,10.14,3.51,16.12,10.68,18.39,21.08,1.04,4.74,1.1,9.6,1.14,14.43.06,10.44.08,20.92-.04,31.36-.06,5.5-.26,11.04-2.09,16.34-3.55,10.12-10.7,16.3-21.14,18.29-4.66.88-9.51,1.12-14.27,1.15-10.5.16-21,.12-31.52,0-5.5-.04-11.02-.24-16.32-2.11-10.1-3.51-16.04-10.68-18.31-21-1.06-4.74-1.08-9.6-1.16-14.43-.08-4.94,0-9.88,0-14.83h-.16ZM54.06,95.71c6.93-.24,15.34-.24,23.67-.96,8.81-.76,15.04-5.9,16.66-14.71.86-4.66,1.04-9.52,1.13-14.27.16-8.85.14-17.74,0-26.54-.08-4.5-.28-9.01-.92-13.43-1.1-7.89-6.48-13.43-14.29-15.18-4.78-1.08-9.68-1-14.53-1.08-8.81-.12-17.63-.12-26.44,0-4.46.08-8.99.24-13.37.92-7.83,1.28-12.97,5.78-15.06,13.59-1.12,4.14-1.14,8.41-1.2,12.67-.14,7.21-.22,14.47-.12,21.72.08,6.42.3,12.83.72,19.29.24,3.67,1.55,7.13,3.89,10.12,3.89,4.98,9.29,6.85,15.3,7.17,7.67.36,15.38.44,24.55.68Z"/>
  <path class="st0" d="M79.53,52.47c0,15.06-11.96,26.98-27.02,26.98s-26.88-12.04-26.86-27.1c0-14.94,12.06-26.82,27.18-26.78,14.75,0,26.7,12.07,26.7,26.9ZM52.67,35.02c-9.6-.04-17.52,7.85-17.56,17.42-.06,9.56,7.81,17.5,17.4,17.58,9.58.04,17.53-7.85,17.56-17.46.06-9.56-7.83-17.5-17.4-17.53Z"/>
  <path class="st0" d="M80.7,18.2c3.55.04,6.22,2.79,6.2,6.42-.04,3.43-2.93,6.3-6.34,6.22-3.51-.04-6.38-2.95-6.32-6.42.06-3.51,2.91-6.26,6.46-6.22Z"/>
</svg>