<?xml version="1.0" encoding="UTF-8"?>
<svg id="Capa_1" xmlns="http://www.w3.org/2000/svg" version="1.1" viewBox="0 0 308.41 275.46">
  <!-- Generator: Adobe Illustrator 29.3.1, SVG Export Plug-In . SVG Version: 2.1.0 Build 151)  -->
  <defs>
    <style>
      .st0 {
        fill: none;
        stroke: #fff;
        stroke-linecap: round;
        stroke-linejoin: round;
        stroke-width: 8.41px;
      }
    </style>
  </defs>
  <path class="st0" d="M207.95,205.21v49.21c0,6.65,5.37,12.03,12.02,12.03s12.04-5.38,12.04-12.03v4.8c0,6.65,5.38,12.03,12.01,12.03s12.07-5.38,12.07-12.03v-5.22c0,6.65,5.36,12.03,12.01,12.03s12.04-5.38,12.04-12.03v-9.71c0,6.63,5.4,12.04,12.06,12.04s12.01-5.41,12.01-12.04v-55.24s-1.79-16.78-10.97-27c-10.79-11.97-13.09-15.02-13.09-21.07v-20.04"/>
  <line class="st0" x1="232.01" y1="259.22" x2="232.01" y2="240.77"/>
  <line class="st0" x1="256.08" y1="254" x2="256.08" y2="235.54"/>
  <line class="st0" x1="280.14" y1="244.3" x2="280.14" y2="230.6"/>
  <path class="st0" d="M216.39,120.94v24.33c-.16,1.49-.51,3.57-1.16,5.03-.96,2.91-2.87,6.76-6.46,8.96-6.28,3.81-18.41,11.67-18.41,31.14v21.91c0,10.26,4.4,28.45,17.59,28.45"/>
  <path class="st0" d="M203.37,90.36c0-3.82,3.09-6.9,6.89-6.9h76.5c3.81,0,6.89,3.08,6.89,6.9v23.69c0,3.81-3.08,6.9-6.89,6.9h-76.5c-3.8,0-6.89-3.09-6.89-6.9v-23.69Z"/>
  <path class="st0" d="M280.14,26.85v56.61h-63.75V26.85c0-12.51,10.14-22.64,22.64-22.64h18.46c12.51,0,22.64,10.14,22.64,22.64Z"/>
  <path class="st0" d="M100.46,205.21v49.21c0,6.65-5.37,12.03-12.03,12.03s-12.03-5.38-12.03-12.03v4.8c0,6.65-5.38,12.03-12.01,12.03s-12.07-5.38-12.07-12.03v-5.22c0,6.65-5.37,12.03-12.02,12.03s-12.05-5.38-12.05-12.03v-9.71c0,6.63-5.38,12.04-12.04,12.04s-12.02-5.41-12.02-12.04v-55.24s1.79-16.78,10.98-27c10.77-11.97,13.08-15.02,13.08-21.07v-20.04"/>
  <line class="st0" x1="76.4" y1="259.22" x2="76.4" y2="240.77"/>
  <line class="st0" x1="52.33" y1="254" x2="52.33" y2="235.54"/>
  <line class="st0" x1="28.26" y1="244.3" x2="28.26" y2="230.6"/>
  <path class="st0" d="M92.02,120.94v24.33c.16,1.49.5,3.57,1.16,5.03.98,2.91,2.87,6.76,6.47,8.96,6.27,3.81,18.41,11.67,18.41,31.14v21.91c0,10.26-4.4,28.45-17.59,28.45"/>
  <path class="st0" d="M105.04,90.36c0-3.82-3.09-6.9-6.89-6.9H21.64c-3.8,0-6.89,3.08-6.89,6.9v23.69c0,3.81,3.09,6.9,6.89,6.9h76.51c3.79,0,6.89-3.09,6.89-6.9v-23.69Z"/>
  <path class="st0" d="M28.26,83.46V26.96c0-12.48,10.1-22.61,22.58-22.64l18.47-.05c12.53-.03,22.7,10.11,22.7,22.64v56.55H28.26"/>
  <line class="st0" x1="166.24" y1="78.68" x2="185.87" y2="85.81"/>
  <path class="st0" d="M133.42,74.85c0-7.61,6.17-13.78,13.78-13.78h10.35c7.61,0,13.78,6.17,13.78,13.78h0c0,7.61-6.17,13.78-13.78,13.78h-10.35c-7.61,0-13.78-6.17-13.78-13.78h0Z"/>
  <path class="st0" d="M215.67,100.45c-3.48,4.99-10.01,7.24-16.01,5.05l-9.72-3.54c-7.15-2.6-10.84-10.5-8.24-17.66h0c2.6-7.15,10.51-10.84,17.66-8.24l9.73,3.54c2.23.81,4.13,2.14,5.6,3.8"/>
  <line class="st0" x1="138.51" y1="78.68" x2="118.87" y2="85.81"/>
  <path class="st0" d="M89.06,100.45c3.49,4.99,10.01,7.24,16.02,5.05l9.72-3.54c7.15-2.6,10.84-10.5,8.24-17.66h0c-2.6-7.15-10.51-10.84-17.66-8.24l-9.73,3.54c-2.23.81-4.13,2.14-5.61,3.8"/>
</svg>