<?xml version="1.0" encoding="UTF-8"?>
<svg id="Capa_1" xmlns="http://www.w3.org/2000/svg" version="1.1" viewBox="0 0 183.65 163.67">
  <!-- Generator: Adobe Illustrator 29.4.0, SVG Export Plug-In . SVG Version: 2.1.0 Build 152)  -->
  <defs>
    <style>
      .st0 {
        fill: none;
        stroke: #fff;
        stroke-miterlimit: 10;
        stroke-width: 1.74px;
      }
    </style>
  </defs>
  <path class="st0" d="M124.42,122.76v29.84c0,4.03,3.26,7.29,7.29,7.29s7.3-3.26,7.3-7.29v2.91c0,4.03,3.26,7.29,7.28,7.29s7.32-3.26,7.32-7.29v-3.17c0,4.03,3.25,7.3,7.28,7.3s7.3-3.26,7.3-7.3v-5.89c0,4.02,3.27,7.3,7.31,7.3s7.28-3.28,7.28-7.3v-33.5s-1.09-10.17-6.65-16.37c-6.54-7.26-7.94-9.11-7.94-12.78v-12.15"/>
  <line class="st0" x1="139.01" y1="155.51" x2="139.01" y2="144.32"/>
  <line class="st0" x1="153.6" y1="152.34" x2="153.6" y2="141.15"/>
  <line class="st0" x1="168.19" y1="146.46" x2="168.19" y2="138.15"/>
  <path class="st0" d="M129.54,71.66v14.75c-.09.9-.31,2.16-.7,3.05-.58,1.76-1.74,4.1-3.92,5.43-3.81,2.31-11.16,7.08-11.16,18.88v13.29c0,6.22,2.67,17.25,10.66,17.25"/>
  <path class="st0" d="M121.64,53.11c0-2.31,1.87-4.18,4.18-4.18h46.39c2.31,0,4.18,1.87,4.18,4.18v14.36c0,2.31-1.87,4.18-4.18,4.18h-46.39c-2.3,0-4.18-1.87-4.18-4.18v-14.36Z"/>
  <path class="st0" d="M168.19,14.6v34.33h-38.65V14.6c0-7.58,6.15-13.73,13.73-13.73h11.19c7.58,0,13.73,6.15,13.73,13.73Z"/>
  <path class="st0" d="M59.24,122.76v29.84c0,4.03-3.26,7.29-7.3,7.29s-7.3-3.26-7.3-7.29v2.91c0,4.03-3.26,7.29-7.28,7.29s-7.32-3.26-7.32-7.29v-3.17c0,4.03-3.26,7.3-7.29,7.3s-7.31-3.26-7.31-7.3v-5.89c0,4.02-3.26,7.3-7.3,7.3s-7.29-3.28-7.29-7.3v-33.5s1.09-10.17,6.66-16.37c6.53-7.26,7.93-9.11,7.93-12.78v-12.15"/>
  <line class="st0" x1="44.65" y1="155.51" x2="44.65" y2="144.32"/>
  <line class="st0" x1="30.05" y1="152.34" x2="30.05" y2="141.15"/>
  <line class="st0" x1="15.46" y1="146.46" x2="15.46" y2="138.15"/>
  <path class="st0" d="M54.12,71.66v14.75c.1.9.3,2.16.7,3.05.59,1.76,1.74,4.1,3.92,5.43,3.8,2.31,11.16,7.08,11.16,18.88v13.29c0,6.22-2.67,17.25-10.66,17.25"/>
  <path class="st0" d="M62.01,53.11c0-2.31-1.88-4.18-4.18-4.18H11.44c-2.3,0-4.18,1.87-4.18,4.18v14.36c0,2.31,1.87,4.18,4.18,4.18h46.39c2.3,0,4.18-1.87,4.18-4.18v-14.36Z"/>
  <path class="st0" d="M15.46,48.93V14.67C15.46,7.1,21.58.96,29.15.94l11.2-.03c7.6-.02,13.77,6.13,13.77,13.73v34.29H15.46"/>
  <line class="st0" x1="99.12" y1="46.03" x2="111.03" y2="50.36"/>
  <path class="st0" d="M79.22,43.71c0-4.61,3.74-8.35,8.35-8.35h6.27c4.61,0,8.35,3.74,8.35,8.35h0c0,4.61-3.74,8.35-8.35,8.35h-6.27c-4.61,0-8.35-3.74-8.35-8.35h0Z"/>
  <path class="st0" d="M129.1,59.23c-2.11,3.03-6.07,4.39-9.71,3.06l-5.89-2.14c-4.34-1.58-6.57-6.37-4.99-10.71h0c1.58-4.33,6.37-6.57,10.71-4.99l5.9,2.15c1.35.49,2.5,1.3,3.4,2.3"/>
  <line class="st0" x1="82.31" y1="46.03" x2="70.4" y2="50.36"/>
  <path class="st0" d="M52.33,59.23c2.11,3.03,6.07,4.39,9.71,3.06l5.89-2.14c4.34-1.58,6.57-6.37,4.99-10.71h0c-1.58-4.33-6.37-6.57-10.71-4.99l-5.9,2.15c-1.35.49-2.5,1.3-3.4,2.3"/>
</svg>