<?xml version="1.0" encoding="UTF-8"?>
<svg id="Capa_1" xmlns="http://www.w3.org/2000/svg" version="1.1" viewBox="0 0 308.41 275.46">
  <!-- Generator: Adobe Illustrator 29.3.1, SVG Export Plug-In . SVG Version: 2.1.0 Build 151)  -->
  <defs>
    <style>
      .st0 {
        stroke-linecap: round;
      }

      .st0, .st1 {
        stroke-width: 10.31px;
      }

      .st0, .st1, .st2 {
        fill: none;
        stroke: #fff;
        stroke-linejoin: round;
      }

      .st2 {
        stroke-width: 6.73px;
      }
    </style>
  </defs>
  <g>
    <polygon class="st0" points="154.28 128.68 278.43 67.43 154.28 7.99 29.97 67.43 154.28 128.68"/>
    <path class="st0" d="M231.93,90.38v42.39c-81.26,80.96-156.5,1.5-156.5,1.5v-44.44"/>
    <polyline class="st0" points="259.73 76.66 259.82 76.68 259.82 125.22"/>
    <circle class="st0" cx="259.7" cy="136.29" r="11.07" transform="translate(79.99 368.08) rotate(-79.9)"/>
    <polyline class="st0" points="264.68 146.9 273.05 176.53 245.69 176.53 255.45 147.18"/>
  </g>
  <g>
    <g>
      <circle class="st2" cx="159.25" cy="224.59" r="24.76" transform="translate(-94.57 117.94) rotate(-31.87)"/>
      <polyline class="st2" points="137.72 236.82 127.54 261.67 140.6 257.36 147.12 269.47 155.53 249.07"/>
      <polyline class="st2" points="181.37 235.72 181.37 235.73 191.63 260.57 178.57 256.26 172.04 268.36 163.93 248.9"/>
      <circle class="st2" cx="159.25" cy="224.59" r="11.82" transform="translate(-101.53 312.88) rotate(-73.37)"/>
    </g>
    <path class="st1" d="M134.86,244.02l-90.55,3.16c-4.71-1.69-8.28-10.52-8.28-21.16s3.69-19.74,8.49-21.23l95.73,3.95"/>
    <path class="st1" d="M178.11,208.55l81.86-3.76c4.8,1.49,8.5,10.42,8.5,21.23s-3.58,19.47-8.28,21.16l-75.45-2.98"/>
  </g>
</svg>