<?xml version="1.0" encoding="UTF-8"?>
<svg id="Capa_1" xmlns="http://www.w3.org/2000/svg" version="1.1" viewBox="0 0 308.41 275.46">
  <!-- Generator: Adobe Illustrator 29.3.1, SVG Export Plug-In . SVG Version: 2.1.0 Build 151)  -->
  <defs>
    <style>
      .st0 {
        fill: #fff;
      }
    </style>
  </defs>
  <path class="st0" d="M262.18,119.95c-1.61-1.4-2.58-1.15-4.54-1.02-4.71,4.46-5.61,12.16-9.83,17.3-.27.33-.54.67-.82,1-.17.2-.34.39-.51.58-.38-8.31-1.33-16.45-3.71-24.45-4.64-15.58-17.77-40-29.95-50.79-1.93-1.71-3.38-2.53-5.9-3l-2.02.63c-4.57,9.82-6.7,20.85-13.4,29.52.89-27.65-6.87-58.03-26.2-78.81-3.24-3.49-6.48-6.62-11.1-8.11-6.57,6.28-9.71,19.82-15.8,27.93-4.58,6.11-10.35,11.2-16.23,16.01-20.8,17.01-25.87,24.45-31.48,51.07-.75-3.79-1.42-7.53-1.6-11.4-.25-5.32,1.65-21.83-.32-25.63-.39-.75-1.13-1.25-1.69-1.87-2.49-.56-3.89-.45-6.05,1.01-13.62,9.24-26.45,42.45-28.8,58.38-2.07,14.03-.5,27.77,2.62,41.52-3.38-3.54-5.96-7.09-11.14-7.51-1.81.88-2.62,1.34-3.38,3.28-4.93,12.67,6.46,46.96,12.7,59.03,12.85,24.85,35.52,45.6,62.45,53.97,12.54,3.9,25.28,3.95,38.29,3.99,29.22,1.26,56.48-10.85,77.84-30.51,21.88-20.13,36.44-49.11,37.6-78.99.34-8.82-.18-37.17-7.03-43.13ZM152.6,265.57c-7.56-2.97-14.55-6.08-21.2-10.84-11.04-7.91-19.77-18.23-21.84-32.07-2.95-19.69,10.16-37.41,21.2-52.32-.52,5-3.36,14.89-1.68,19.28.64,1.66,1.04,1.93,2.64,2.55,2.8-.47,4.51-1.65,6.48-3.64,12.73-12.87,11.75-34.89,11.51-51.53,15.44,15.5,20.75,61.19,29.32,68.99,1.52,1.38,2.46,1.53,4.44,1.48,5.82-3.64,8.31-13.23,10.84-19.37,4.14,17.08,4.35,34.36-4.75,49.95-8.01,13.73-21.7,23.46-36.95,27.51ZM250.23,198.61c-.74,1.61-1.52,3.21-2.34,4.79-.82,1.58-1.67,3.13-2.57,4.67-.89,1.54-1.82,3.05-2.79,4.54-.97,1.49-1.97,2.96-3,4.4-1.04,1.44-2.11,2.86-3.21,4.25-1.1,1.39-2.24,2.76-3.41,4.09-1.17,1.34-2.37,2.64-3.61,3.92-1.23,1.28-2.5,2.53-3.79,3.75-1.29,1.22-2.62,2.4-3.97,3.56-1.35,1.15-2.73,2.28-4.13,3.36-1.4,1.09-2.83,2.14-4.29,3.16-1.45,1.02-2.93,2-4.44,2.95-1.5.95-3.03,1.86-4.57,2.74-1.55.87-3.11,1.71-4.7,2.51-1.59.8-3.19,1.56-4.81,2.28-1.62.72-3.26,1.41-4.92,2.05,1.98-2.32,3.87-4.71,5.68-7.17,11.54-15.77,14.07-35.18,11.02-54.12-1.23-7.65-4.6-24.11-11.59-28.45-1.82-1.13-2.85-.97-4.88-.62-4.97,3.76-5.32,16.82-7,23.04-3.52-8.93-5.71-18.46-8.87-27.54-5.63-16.22-16.08-34.42-29.12-45.74-2.51-.86-4.37-.92-6.8.21-.52.68-1.17,1.27-1.55,2.04-1,2.04,2.34,22.09,2.6,25.84.57,8.18.21,16.16-.63,24.3-1.1-4.15-2.71-11.98-5.86-14.86-1.69-1.55-2.14-1.42-4.28-1.28-4.07,2.5-5.05,7.51-6.46,11.8-1.75,5.34-4.53,8.75-7.63,13.31-7.79,11.46-14.54,22.68-15.47,36.85-1.18,17.96,6.67,30.95,18.19,43.96-9.21-3.09-17.38-6.79-25.23-12.57-24.91-18.35-37.22-45.07-41.62-75.04,4.14,2.8,11.11,7.14,16.34,6.07,1.78-.36,2.95-.92,3.93-2.49,2.65-4.28-3.4-11.73-4.9-15.79-1.03-2.78-1.57-5.83-2.12-8.75-.27-1.47-.49-2.95-.69-4.43-.19-1.48-.35-2.97-.47-4.46-.12-1.49-.2-2.98-.25-4.48-.05-1.49-.06-2.99-.03-4.49.03-1.5.09-2.99.19-4.48.1-1.49.23-2.98.4-4.47.17-1.49.38-2.97.62-4.44.24-1.48.52-2.94.84-4.41.32-1.46.67-2.92,1.05-4.36.39-1.45.81-2.88,1.26-4.3.46-1.42.95-2.84,1.47-4.24.53-1.4,1.08-2.79,1.68-4.16.59-1.37,1.22-2.73,1.88-4.07.66-1.34,1.35-2.67,2.07-3.98.72-1.31,1.48-2.6,2.27-3.87.79-1.27,1.6-2.52,2.45-3.76.19,4.81.75,9.53,1.86,14.22,1.79,7.55,6.02,20.91,13.17,24.82,2.66,1.46,4.84,1.04,7.55.16,3.45-6.26-1.74-27.57,8.42-45.18,12.31-21.35,35.08-23.99,48.01-55.33,4.9,4.67,8.9,10.64,12.12,16.56,8.61,15.8,15.96,39.4,10.42,57.32-1.05,3.39-2.55,6.99-2.32,10.56,1.23,1.96,1.54,2.16,3.61,3.22,1.86.02,3.34-.07,5.1-.7,11.98-4.26,19.43-19.11,24.62-29.67,11.33,12.61,20.43,31.28,23.58,47.94.61,3.24,1.24,6.67,1.28,9.97.06,5.54-2.69,12.29.92,17.02,1.95,1.08,2.93,1.57,5.19,1.22,6.47-1,12.59-7.61,16.37-12.6,2.83,20.28.58,40.03-7.86,58.85Z"/>
</svg>