<?xml version="1.0" encoding="UTF-8"?>
<svg id="Capa_1" xmlns="http://www.w3.org/2000/svg" version="1.1" viewBox="0 0 232.68 76.63">
  <!-- Generator: Adobe Illustrator 29.3.1, SVG Export Plug-In . SVG Version: 2.1.0 Build 151)  -->
  <defs>
    <style>
      .st0 {
        fill: #ff7f0b;
      }
    </style>
  </defs>
  <path class="st0" d="M101.12,63.66c2.86-1.86,6.09-3.32,9.38-4.7,1.69-.69,3.35-1.39,5.02-2.09,1.7-.75,3.4-1.53,5.04-2.46,1.66-.89,3.25-1.93,4.78-3.05.73-.6,1.49-1.17,2.17-1.85.34-.33.7-.63,1.04-.99l.96-1.05c2.55-2.85,4.29-6.38,5.17-9.91.21-.88.35-1.77.5-2.64.09-.91.18-1.85.23-2.71v-2.45c-.02-.82-.09-1.63-.14-2.42-.09-.95-.2-2.17-.34-3.09,0,0-.24-.95-1-.99-.62-.11-2.85,1.53-4.15,2.55.1.64.2,1.19.24,1.88.04.72.06,1.45.06,2.18-.02.74-.04,1.48-.07,2.23-.09.67-.16,1.34-.25,2.02-.14.68-.25,1.4-.44,2.08l-.32,1-.16.52-.2.48-.4.98c-.16.33-.34.63-.5.95-.3.65-.74,1.23-1.12,1.84-.2.3-.44.58-.68.87-.23.28-.42.59-.7.85-.07.07-.14.14-.21.21-.55-1.68-2.26-7.3-1.96-11.22.68-6.47,9.74-11.45,10.9-11.32,1.18.14,1.6,2.47,1.6,2.47,0,0,3.85-7.32,1.18-9.12-.98-.66-2.61-.73-4.3-.56-.46-1.35-.97-2.66-1.53-3.91-1.16-2.48-2.36-4.79-4.34-6.8-.52-.5-1.11-.98-1.87-1.38-.22-.09-.41-.18-.64-.27-.29-.09-.65-.17-.88-.2h-.21s-.1-.02-.1-.02h-.05c-.41-.02-.16,0-.27,0-.21.01-.44.03-.63.06-1.61.27-2.64.93-3.59,1.52-1.85,1.23-3.22,2.51-4.46,3.63-.11.11-.22.22-.34.31-.39.3-.83.69-1.37,1.25-.18.16-.36.32-.53.47-1.65,1.18-3.25-.14-4.09-1.08-2.11-2.74-5.97-7.43-7.24-7.7-1.55-.32-3.64,2.46-2.77,4.59,0,0,.13.16.38.34.24.17.11-1.65.93-1.48.84.16.93,2.92,1.67,3.49,0,0-1.52,1.09-2.79-.14,0,0-.31-.29-.64-.58-.32-.29-.64.98.17,1.64.79.69,1.2,1.14,2.63,1.66.77.26,3.23,1.15,5.84,2.36,4.24,2.69,6.44.62,6.44.62.16-.09.29-.17.43-.27,1.21-.81,2.32-1.79,3.59-2.82,1.27-1.03,2.66-2.17,4.15-3.06.74-.43,1.57-.79,2.12-.82.03,0,.06,0,.09,0h.05s.2.03.2.03c.04.03-.06.04-.08.01,0,0,.08.05.11.06.2.12.5.37.78.69,1.2,1.33,2.27,3.42,3.15,5.66.35.87.76,2.12,1.05,3.08-.75.2-1.22.35-1.22.35-.53-1.24-1.49-2.36-3.23-2-1.63.46-4.15,2.07-7.64,4.48-3.62,2.36-7.16,2.01-7.16,2.01,1.06,2.43,2.68,2.96,2.68,2.96-3.5,2.72-5.38,7.61-5.38,7.61h0c-1.58,3.39-3.28,7.97-4.25,13.39-1.58-.12-3.36-.63-3.36-.63-5.31-1.69-8.04-3.01-8.04-3.01,0,0-11.94-4.87-4.42-16.16,0,0,6.31-6.89-5.73-12.6,0,0-9.03-4.44-20.36-4.92-11.33-.48-42.17-1.25-59.66-3.65,0,0,22.17,20.67,29.63,27.24,0,0,3.85,3.59,8.42,3.15,0,0,7.59-.14,18.06-2.44,0,0-5.58,4.76-12.01,5.6,0,0,6.58,13.08,15.79,18.35,0,0,3.11,1.73,6.24,1.13,0,0,6.77-.93,12.39-3.74,0,0-2.85,4.24-11.8,6.54,0,0,8.98,7.21,22.35,10.29,0,0-.72,4.7,3.96,7.58,0-2.18.43-4.25,1.41-6.09,1.36-2.76,3.84-5.04,6.7-6.88Z"/>
  <path class="st0" d="M173.03,6.57c-11.33.48-20.35,4.92-20.35,4.92-12.06,5.71-5.74,12.6-5.74,12.6,7.5,11.29-4.42,16.16-4.42,16.16,0,0-3.16,1.3-7.72,2.67-1.17,2.74-2.94,5.06-3.97,6.3,0,0-1.25,1.51-2.73,2.71-.32.26-.63.52-.95.77l-.51.42c-1.74,1.28-3.38,2.33-5.03,3.22-1.72.97-3.51,1.78-5.19,2.54l-5.08,2.11c-3.04,1.27-6.25,2.7-9.02,4.51-.06.04-.11.07-.17.11-1.54,1.05-2.58,1.91-3.26,2.58,13.75-.06,17.46,8.46,17.46,8.46,0,0,5.1-11.74,25.55-7.58,6.66-1.35,16.92-4.28,24.09-10.29-8.97-2.3-11.8-6.54-11.8-6.54,5.61,2.81,12.39,3.74,12.39,3.74,3.11.6,6.23-1.13,6.23-1.13,9.2-5.27,15.79-18.35,15.79-18.35-6.44-.84-12.01-5.6-12.01-5.6,10.46,2.31,18.04,2.44,18.04,2.44,4.57.44,8.42-3.15,8.42-3.15,7.47-6.57,29.63-27.24,29.63-27.24-17.47,2.4-48.31,3.17-59.64,3.65Z"/>
</svg>