<?xml version="1.0" encoding="UTF-8"?>
<svg xmlns="http://www.w3.org/2000/svg" xmlns:xlink="http://www.w3.org/1999/xlink" version="1.1" viewBox="0 0 704.26 258.11">
  <!-- Generator: Adobe Illustrator 29.3.1, SVG Export Plug-In . SVG Version: 2.1.0 Build 151)  -->
  <defs>
    <style>
      .st0 {
        isolation: isolate;
      }

      .st1 {
        fill: #fff;
      }

      .st2 {
        fill: url(#Degradado_sin_nombre_3);
        mix-blend-mode: screen;
      }

      .st3 {
        opacity: .78;
      }
    </style>
    <radialGradient id="Degradado_sin_nombre_3" data-name="Degradado sin nombre 3" cx="-1795.26" cy="2666.01" fx="-1795.26" fy="2666.01" r="1285.31" gradientTransform="translate(-1423.9 3913.75) rotate(90) scale(1.86 .32)" gradientUnits="userSpaceOnUse">
      <stop offset="0" stop-color="#c18e32"/>
      <stop offset=".04" stop-color="#c18e32" stop-opacity=".8"/>
      <stop offset=".09" stop-color="#c18e32" stop-opacity=".62"/>
      <stop offset=".15" stop-color="#c18e32" stop-opacity=".45"/>
      <stop offset=".21" stop-color="#c18e32" stop-opacity=".31"/>
      <stop offset=".28" stop-color="#c18e32" stop-opacity=".19"/>
      <stop offset=".36" stop-color="#c18e32" stop-opacity=".11"/>
      <stop offset=".46" stop-color="#c18e32" stop-opacity=".04"/>
      <stop offset=".61" stop-color="#c18e32" stop-opacity="0"/>
      <stop offset="1" stop-color="#c18e32" stop-opacity="0"/>
    </radialGradient>
  </defs>
  <g class="st0">
    <g id="Capa_1">
      <g class="st3">
        <ellipse class="st2" cx="-2277.55" cy="566.66" rx="411.53" ry="2396.53" transform="translate(-2829.14 -1714.59) rotate(-89.62)"/>
      </g>
      <g>
        <path class="st1" d="M222.35,0c-32.27,0-62.42,14.49-82.73,39.77-.98,1.22-1.26,2.86-.74,4.34.52,1.48,1.76,2.58,3.29,2.92,7.83,1.74,14.33,3.93,18.4,5.48.52.2,1.06.29,1.6.29,1.21,0,2.4-.48,3.27-1.39,15.04-15.64,35.25-24.26,56.91-24.26,40.09,0,73.8,29.99,78.41,69.76.08.71.15,1.43.22,2.14.07.82.14,1.66.19,2.5.02.28.03.55.04.81l.02.39c.05,1.11.09,2.23.09,3.36,0,43.54-35.42,78.96-78.96,78.96-2.79,0-5.67-.16-8.57-.47-.16-.02-.32-.03-.49-.03-.03,0-.07,0-.1,0-.54.01-5.34.24-9.06,4.55-3.44,3.98-4.69,9.91-3.71,17.6.25,1.97,1.76,3.55,3.72,3.89,6.09,1.06,12.22,1.6,18.21,1.6,58.51,0,106.11-47.6,106.11-106.11S280.85,0,222.35,0"/>
        <path class="st1" d="M204.51,173.22c5.78-3.76,12.32-6.71,18.97-9.5,3.41-1.4,6.78-2.82,10.15-4.22,3.44-1.53,6.88-3.1,10.19-4.97,3.35-1.8,6.57-3.9,9.66-6.18,1.48-1.22,3.02-2.37,4.38-3.73.7-.66,1.42-1.28,2.09-2.01l1.95-2.12c5.17-5.77,8.68-12.91,10.46-20.04.42-1.79.7-3.57,1.01-5.34.18-1.83.36-3.73.46-5.47v-4.96c-.05-1.66-.17-3.29-.28-4.9-.18-1.92-.41-4.39-.68-6.24,0,0-.48-1.91-2.03-1.99-1.25-.23-5.78,3.1-8.4,5.17.2,1.3.41,2.4.5,3.8.09,1.45.11,2.94.11,4.4-.06,1.5-.08,3-.14,4.5-.18,1.35-.32,2.7-.51,4.09-.28,1.38-.51,2.82-.88,4.2l-.64,2.03-.32,1.05-.41.98-.81,1.99c-.32.67-.7,1.28-1.02,1.92-.61,1.32-1.48,2.48-2.27,3.73-.4.61-.9,1.16-1.37,1.76-.46.56-.86,1.19-1.42,1.71-.15.14-.28.27-.44.44-1.11-3.41-4.57-14.76-3.95-22.7,1.38-13.09,19.7-23.15,22.04-22.89,2.4.27,3.24,4.99,3.24,4.99,0,0,7.79-14.82,2.38-18.45-1.98-1.33-5.29-1.48-8.71-1.13-.94-2.73-1.96-5.37-3.08-7.92-2.34-5.02-4.77-9.68-8.78-13.76-1.05-1-2.24-1.98-3.78-2.79-.44-.19-.81-.36-1.3-.55-.59-.18-1.31-.35-1.77-.41l-.41-.03h-.21s-.1-.01-.1-.01c-.82-.04-.32,0-.54-.01-.43.03-.9.06-1.28.12-3.25.55-5.34,1.87-7.26,3.08-3.74,2.5-6.52,5.08-9.01,7.34-.23.23-.45.44-.69.63-.79.6-1.69,1.4-2.77,2.52-.37.33-.73.64-1.07.94-3.35,2.4-6.56-.27-8.28-2.17-4.27-5.55-12.08-15.03-14.65-15.58-3.14-.65-7.36,4.98-5.61,9.29,0,0,.25.33.77.68.49.33.22-3.33,1.88-3,1.69.34,1.89,5.9,3.37,7.06,0,0-3.07,2.21-5.64-.28,0,0-.63-.58-1.3-1.17-.64-.58-1.28,1.98.35,3.32,1.59,1.39,2.43,2.31,5.32,3.36,1.56.54,6.53,2.32,11.82,4.78,8.58,5.45,13.02,1.25,13.02,1.25.32-.17.58-.35.88-.55,2.46-1.65,4.69-3.61,7.26-5.7,2.56-2.08,5.38-4.38,8.39-6.19,1.49-.87,3.18-1.6,4.28-1.65.06-.01.12,0,.18,0l.11.02.41.04c.08.05-.12.07-.16.03,0,.01.16.1.22.13.42.25,1.01.76,1.59,1.38,2.42,2.7,4.59,6.93,6.36,11.45.7,1.76,1.53,4.29,2.12,6.22-1.51.41-2.47.71-2.47.71-1.08-2.5-3.01-4.77-6.54-4.04-3.29.93-8.39,4.19-15.46,9.07-7.32,4.78-14.49,4.06-14.49,4.06,2.14,4.91,5.42,5.98,5.42,5.98-7.08,5.51-10.89,15.4-10.89,15.4-3.19,6.86-6.62,16.11-8.6,27.07-3.2-.23-6.8-1.28-6.8-1.28-10.73-3.42-16.27-6.08-16.27-6.08,0,0-24.14-9.85-8.94-32.68,0,0,12.75-13.93-11.59-25.48,0,0-18.25-8.98-41.18-9.95-22.9-.97-85.28-2.53-120.65-7.38,0,0,44.84,41.79,59.92,55.08,0,0,7.79,7.27,17.02,6.38,0,0,15.35-.27,36.53-4.94,0,0-11.28,9.62-24.29,11.32,0,0,13.3,26.46,31.93,37.11,0,0,6.3,3.51,12.61,2.3,0,0,13.69-1.88,25.05-7.55,0,0-5.76,8.57-23.86,13.23,0,0,18.16,14.59,45.19,20.81,0,0-1.45,9.5,8.02,15.34.02-4.4.87-8.6,2.84-12.32,2.75-5.59,7.77-10.2,13.54-13.91"/>
        <g>
          <path class="st1" d="M413.2,36.37h6.21v67.1h-17.49v-30.87l-14.24,14.91h-2.01l-14.24-14.91v30.87h-17.49V36.37h6.21l26.57,28.96,26.48-28.96Z"/>
          <path class="st1" d="M465.68,89.32v14.15h-34.5v-14.15h8.51v-38.62h-7.74v-14.15h32.98v14.15h-7.74v38.62h8.51Z"/>
          <path class="st1" d="M503.24,77.66c-2.01.29-5.93.29-8.32.29v25.52h-17.49V36.56h17.49v26.19c2.77,0,7.36.19,9.75-1.05,3.06-1.53,4.11-5.54,6.02-13.57,2.01-8.12,8.51-14.72,24.18-11.47v11.76c-4.21-.29-7.07.67-8.12,4.78-2.2,8.03-4.49,13.67-8.22,17.78,6.4,9.94,12.62,19.98,19.12,29.92v2.58h-19.79l-14.62-25.81Z"/>
          <path class="st1" d="M588.32,51.76h-24.28v9.56h22.37v15.29h-22.37v10.9h25.14v15.96h-42.63V36.56h41.77v15.2Z"/>
        </g>
        <g>
          <path class="st1" d="M392.74,173.53h-23.99v23.8h-14.24v-66.91h41v12.52h-26.76v18.06h23.99v12.52Z"/>
          <path class="st1" d="M420.95,184.53h27.91v12.81h-42.25v-66.91h14.34v54.1Z"/>
          <path class="st1" d="M487.09,198.48c-17.87,0-34.03-12.04-34.03-34.6s16.54-34.5,34.31-34.5,34.03,12.04,34.03,34.5c0,20.36-14.05,34.6-34.31,34.6ZM487.28,185.39c10.42,0,19.88-6.88,19.88-21.51s-9.37-21.31-19.79-21.31-19.88,7.17-19.88,21.31,9.08,21.51,19.79,21.51Z"/>
          <path class="st1" d="M588.6,195.23v2.01h-15.29l-13.76-22.08h-11.95v22.08h-14.34v-66.91c9.56,0,19.02-.1,28.58,0,15.29,0,23.61,11.09,23.61,22.94,0,8.51-4.3,15.96-11.95,19.69l15.1,22.27ZM561.74,163.4c6.02,0,9.94-4.68,9.85-10.42,0-5.64-3.73-10.13-9.85-10.13h-14.34v20.55h14.34Z"/>
          <path class="st1" d="M640.22,142.95h-26.57v13.57h24.85v12.52h-24.85v15.29h27.34v13h-41.77v-66.91h41v12.52Z"/>
          <path class="st1" d="M663.83,177.55c.29,6.12,6.98,8.7,13.48,8.7,5.93,0,12.81-1.43,12.81-8.41,0-7.65-8.22-8.32-14.62-8.79-12.14-1.05-24.37-5.16-24.37-19.02,0-14.82,12.14-21.03,25.43-21.03,12.52,0,25.52,5.26,25.52,20.26h-13.38c-.76-5.45-6.4-7.74-12.14-7.74s-11.37,3.06-11.37,8.22c0,5.93,5.83,7.26,12.81,8.03,14.15,1.24,26.28,4.4,26.28,20.07s-13.67,20.65-26.86,20.93c-13.38,0-27.24-6.6-27.24-21.22h13.67Z"/>
        </g>
        <g>
          <path class="st1" d="M363.44,233.06c7.99,0,12.09,6.12,12.09,12.17.11,6.19-3.96,12.42-12.09,12.42h-9.35v-24.6h9.35ZM363.37,251.85c3.89,0,5.75-3.27,5.75-6.54s-1.96-6.47-5.75-6.47h-2.87v13.02h2.87Z"/>
          <path class="st1" d="M394.3,252.45v5.21h-12.65v-5.21h3.12v-14.22h-2.84v-5.21h12.09v5.21h-2.84v14.22h3.12Z"/>
          <path class="st1" d="M402.15,257.62v-24.63c3.64,0,7.18-.04,10.83,0,5.89,0,8.9,4.61,8.79,9.25,0,4.5-2.98,9.01-8.79,9.01h-4.41v6.37h-6.41ZM412.97,245.66c1.68,0,2.66-1.79,2.66-3.59s-.91-3.48-2.66-3.48h-4.52v7.07h4.52Z"/>
          <path class="st1" d="M428.45,249.53v-16.5h6.41v16.36c0,2.04,1.79,2.92,3.61,2.92,1.72,0,3.54-.88,3.54-2.92v-16.36h6.34v16.5c0,5.52-4.76,8.45-9.91,8.45s-9.99-2.92-9.99-8.45Z"/>
          <path class="st1" d="M454.94,238.65v-5.63h18.22v5.63h-5.99v19h-6.2v-19h-6.03Z"/>
          <path class="st1" d="M483.03,254.59l-1.4,3.06h-6.69v-.88l11.25-24h2.94l11.14,24v.88h-6.62l-1.44-3.06h-9.18ZM485.1,249.21h5.08l-2.56-5.95-2.52,5.95Z"/>
          <path class="st1" d="M515.4,233.06c7.99,0,12.09,6.12,12.09,12.17.11,6.19-3.96,12.42-12.09,12.42h-9.35v-24.6h9.35ZM515.33,251.85c3.89,0,5.75-3.27,5.75-6.54s-1.96-6.47-5.75-6.47h-2.87v13.02h2.87Z"/>
          <path class="st1" d="M546.23,258.11c-6.48,0-12.54-4.22-12.54-12.77s6.27-12.81,12.65-12.81,12.51,4.29,12.51,12.81c0,7.53-5.18,12.77-12.61,12.77ZM546.26,252.02c3.05,0,6.17-2.29,6.17-6.69s-3.05-6.69-6.1-6.69-6.24,2.18-6.24,6.69,3.01,6.69,6.17,6.69Z"/>
          <path class="st1" d="M584.58,251.88h8.86v5.77h-15.27v-24.63h6.41v18.86Z"/>
          <path class="st1" d="M611,258.11c-6.48,0-12.54-4.22-12.54-12.77s6.27-12.81,12.65-12.81,12.51,4.29,12.51,12.81c0,7.53-5.19,12.77-12.61,12.77ZM611.03,252.02c3.05,0,6.17-2.29,6.17-6.69s-3.05-6.69-6.1-6.69-6.24,2.18-6.24,6.69,3.01,6.69,6.17,6.69Z"/>
          <path class="st1" d="M642.35,232.78c5.04,0,10.58,2.74,11.53,9.32h-6.17c-.88-2.53-2.73-3.52-5.36-3.52-3.71,0-6.13,2.67-6.13,6.76,0,3.55,2.38,6.69,6.13,6.69,2.66,0,4.76-1.23,5.43-3.91h6.17c-.95,7-6.38,9.78-11.6,9.78-6.27,0-12.54-4.22-12.54-12.53s6.27-12.6,12.54-12.6Z"/>
          <path class="st1" d="M665.89,254.59l-1.4,3.06h-6.69v-.88l11.25-24h2.94l11.14,24v.88h-6.62l-1.44-3.06h-9.18ZM667.96,249.21h5.08l-2.56-5.95-2.52,5.95Z"/>
          <path class="st1" d="M695.28,251.88h8.86v5.77h-15.27v-24.63h6.41v18.86Z"/>
        </g>
      </g>
    </g>
  </g>
</svg>