<?xml version="1.0" encoding="UTF-8"?>
<svg id="Capa_1" xmlns="http://www.w3.org/2000/svg" version="1.1" viewBox="0 0 494.08 148.88">
  <!-- Generator: Adobe Illustrator 29.3.1, SVG Export Plug-In . SVG Version: 2.1.0 Build 151)  -->
  <defs>
    <style>
      .st0 {
        fill: #fcfbfa;
      }
    </style>
  </defs>
  <path class="st0" d="M155.99,0c-22.64,0-43.79,10.17-58.04,27.9-.69.86-.88,2.01-.52,3.04.36,1.04,1.24,1.81,2.31,2.05,5.49,1.22,10.05,2.76,12.91,3.84.37.14.75.2,1.12.2.85,0,1.68-.34,2.29-.97,10.55-10.97,24.73-17.02,39.93-17.02,28.12,0,51.77,21.04,55.01,48.94.06.5.11,1,.15,1.5.05.58.1,1.16.13,1.75.01.2.02.38.03.57v.27c.04.78.07,1.56.07,2.36,0,30.54-24.85,55.4-55.4,55.4-1.96,0-3.98-.11-6.01-.33-.11-.01-.23-.02-.34-.02-.02,0-.05,0-.07,0-.38,0-3.74.17-6.35,3.19-2.41,2.79-3.29,6.95-2.61,12.35.17,1.38,1.23,2.49,2.61,2.73,4.27.74,8.57,1.12,12.77,1.12,41.05,0,74.44-33.39,74.44-74.44S197.03,0,155.99,0"/>
  <path class="st0" d="M143.47,121.52c4.06-2.64,8.64-4.71,13.31-6.67,2.39-.98,4.75-1.98,7.12-2.96,2.42-1.07,4.83-2.17,7.15-3.48,2.35-1.27,4.61-2.73,6.77-4.33,1.04-.86,2.12-1.66,3.07-2.62.49-.46,1-.9,1.47-1.41l1.37-1.49c3.63-4.05,6.09-9.06,7.34-14.06.3-1.25.49-2.5.71-3.75.13-1.28.26-2.62.32-3.84v-3.48c-.03-1.17-.12-2.31-.2-3.44-.13-1.34-.28-3.08-.48-4.38,0,0-.34-1.34-1.42-1.4-.87-.16-4.05,2.17-5.89,3.63.14.91.29,1.68.35,2.66.06,1.02.08,2.06.08,3.09-.04,1.05-.06,2.1-.1,3.16-.12.95-.22,1.9-.36,2.87-.19.97-.36,1.98-.62,2.94l-.45,1.42-.23.73-.29.69-.57,1.4c-.22.47-.49.9-.72,1.34-.43.92-1.04,1.74-1.59,2.62-.28.43-.63.82-.96,1.24-.32.4-.61.84-.99,1.2-.1.1-.2.19-.31.31-.78-2.39-3.21-10.36-2.77-15.92.97-9.18,13.82-16.24,15.46-16.06,1.68.19,2.27,3.5,2.27,3.5,0,0,5.46-10.39,1.67-12.94-1.39-.94-3.71-1.04-6.11-.79-.66-1.92-1.38-3.77-2.16-5.55-1.64-3.52-3.35-6.79-6.16-9.65-.73-.7-1.57-1.39-2.65-1.96-.31-.13-.57-.25-.91-.39-.41-.12-.92-.25-1.25-.29l-.29-.02h-.15s-.07-.01-.07-.01c-.58-.03-.22,0-.38,0-.3.02-.63.04-.9.08-2.28.39-3.75,1.31-5.1,2.16-2.62,1.75-4.57,3.57-6.32,5.15-.16.16-.32.31-.48.44-.55.42-1.18.98-1.94,1.77-.26.23-.51.45-.75.66-2.35,1.68-4.6-.19-5.81-1.53-2.99-3.9-8.48-10.54-10.28-10.93-2.2-.46-5.16,3.5-3.94,6.51,0,0,.18.23.54.48.34.23.15-2.34,1.32-2.1,1.19.24,1.32,4.14,2.36,4.95,0,0-2.16,1.55-3.95-.2,0,0-.44-.41-.91-.82-.45-.41-.9,1.39.25,2.33,1.12.97,1.71,1.62,3.73,2.36,1.1.38,4.58,1.63,8.29,3.35,6.02,3.82,9.13.87,9.13.87.22-.12.41-.24.61-.38,1.72-1.16,3.29-2.53,5.09-4,1.8-1.46,3.78-3.08,5.88-4.34,1.05-.61,2.23-1.12,3-1.16.04-.01.08,0,.13,0h.08s.29.04.29.04c.06.04-.08.05-.11.02,0,.01.11.07.16.09.29.17.71.53,1.11.97,1.7,1.89,3.22,4.86,4.46,8.03.49,1.23,1.08,3.01,1.49,4.36-1.06.29-1.73.5-1.73.5-.75-1.75-2.11-3.35-4.59-2.83-2.31.65-5.89,2.94-10.85,6.36-5.14,3.35-10.16,2.85-10.16,2.85,1.5,3.45,3.8,4.19,3.8,4.19-4.97,3.86-7.64,10.8-7.64,10.8-2.24,4.81-4.65,11.3-6.03,18.99-2.24-.16-4.77-.9-4.77-.9-7.53-2.4-11.42-4.26-11.42-4.26,0,0-16.94-6.91-6.28-22.93,0,0,8.95-9.77-8.13-17.88,0,0-12.81-6.3-28.89-6.98-16.07-.68-59.83-1.78-84.64-5.18,0,0,31.46,29.32,42.04,38.64,0,0,5.46,5.1,11.94,4.47,0,0,10.77-.19,25.63-3.46,0,0-7.91,6.75-17.04,7.94,0,0,9.33,18.56,22.4,26.03,0,0,4.42,2.46,8.85,1.61,0,0,9.6-1.32,17.57-5.3,0,0-4.04,6.01-16.74,9.28,0,0,12.74,10.24,31.7,14.6,0,0-1.02,6.67,5.63,10.76.01-3.09.61-6.03,1.99-8.64,1.93-3.92,5.45-7.15,9.5-9.76"/>
  <g>
    <path class="st0" d="M289.88,25.51h4.36v47.07h-12.27v-21.66l-9.99,10.46h-1.41l-9.99-10.46v21.66h-12.27V25.51h4.36l18.64,20.32,18.57-20.32Z"/>
    <path class="st0" d="M326.7,62.66v9.92h-24.21v-9.92h5.97v-27.09h-5.43v-9.92h23.13v9.92h-5.43v27.09h5.97Z"/>
    <path class="st0" d="M353.05,54.48c-1.41.2-4.16.2-5.83.2v17.9h-12.27V25.65h12.27v18.37c1.95,0,5.16.13,6.84-.74,2.15-1.07,2.88-3.89,4.22-9.52,1.41-5.7,5.97-10.33,16.96-8.05v8.25c-2.95-.2-4.96.47-5.7,3.35-1.54,5.63-3.15,9.59-5.77,12.47,4.49,6.97,8.85,14.01,13.41,20.99v1.81h-13.88l-10.26-18.1Z"/>
    <path class="st0" d="M412.73,36.31h-17.03v6.71h15.69v10.73h-15.69v7.64h17.64v11.2h-29.91V25.65h29.3v10.66Z"/>
  </g>
  <g>
    <path class="st0" d="M275.53,121.74h-16.83v16.7h-9.99v-46.94h28.77v8.78h-18.78v12.67h16.83v8.78Z"/>
    <path class="st0" d="M295.31,129.45h19.58v8.99h-29.64v-46.94h10.06v37.95Z"/>
    <path class="st0" d="M341.72,139.24c-12.54,0-23.87-8.45-23.87-24.27s11.6-24.21,24.07-24.21,23.87,8.45,23.87,24.21c0,14.28-9.86,24.27-24.07,24.27ZM341.85,130.06c7.31,0,13.95-4.83,13.95-15.09s-6.57-14.95-13.88-14.95-13.95,5.03-13.95,14.95,6.37,15.09,13.88,15.09Z"/>
    <path class="st0" d="M412.93,136.96v1.41h-10.73l-9.66-15.49h-8.38v15.49h-10.06v-46.94c6.71,0,13.34-.07,20.05,0,10.73,0,16.56,7.78,16.56,16.09,0,5.97-3.02,11.2-8.38,13.81l10.59,15.62ZM394.09,114.63c4.22,0,6.97-3.29,6.91-7.31,0-3.96-2.62-7.11-6.91-7.11h-10.06v14.42h10.06Z"/>
    <path class="st0" d="M449.15,100.29h-18.64v9.52h17.43v8.78h-17.43v10.73h19.18v9.12h-29.3v-46.94h28.77v8.78Z"/>
    <path class="st0" d="M465.71,124.56c.2,4.29,4.9,6.1,9.45,6.1,4.16,0,8.99-1.01,8.99-5.9,0-5.36-5.77-5.83-10.26-6.17-8.52-.74-17.1-3.62-17.1-13.34,0-10.39,8.52-14.75,17.84-14.75,8.78,0,17.9,3.69,17.9,14.22h-9.39c-.54-3.82-4.49-5.43-8.52-5.43s-7.98,2.15-7.98,5.77c0,4.16,4.09,5.1,8.99,5.63,9.92.87,18.44,3.08,18.44,14.08s-9.59,14.48-18.84,14.69c-9.39,0-19.11-4.63-19.11-14.89h9.59Z"/>
  </g>
</svg>