<?xml version="1.0" encoding="UTF-8"?>
<svg id="Capa_1" xmlns="http://www.w3.org/2000/svg" version="1.1" viewBox="0 0 308.41 275.46">
  <!-- Generator: Adobe Illustrator 29.3.1, SVG Export Plug-In . SVG Version: 2.1.0 Build 151)  -->
  <defs>
    <style>
      .st0 {
        fill: #fff;
      }
    </style>
  </defs>
  <path class="st0" d="M154.22,249.8c-62.11-.53-111.98-49.84-112.04-112.06-.05-62.27,49.92-112.14,112.11-112.09,62.3.05,111.94,50.05,111.92,112.05-.03,61.95-49.6,111.54-112,112.09ZM114.62,129.78c-.18-6.82.12-13.62,1.33-20.35,2.71-15.11,9.83-26.55,25.57-31.01,9.65-2.73,18.61-2.28,26.51,4.64.56.49,1.15.68,1.89.64,9.96-.67,16.69,4.04,20.78,12.79,4.56,9.77,5.16,20.21,4.72,30.77-.31,7.4-1.46,14.81-.16,22.21,1.23,7.02,3.93,13.21,10.38,17.08,2.04,1.22,2.11,1.43.2,2.95-4.66,3.72-10.13,5.6-15.85,6.92-4.35,1-8.76,1.32-13.2,1.59-.86.05-2.09-.06-2.16,1.2-.19,3.1-.66,6.24,2.43,8.55,3.83,2.86,7.88,5.26,12.28,7.11,7.33,3.09,14.86,5.74,21.97,9.35,4.9,2.49,4.95,2.51,8.73-1.46,22.78-23.91,31.28-52.3,24.77-84.53-8.41-41.68-44.67-72.77-89.15-73.64-17.03-.33-33.17,3.68-47.81,12.52-28.79,17.4-44.31,43.09-46.22,76.65-.92,16.03,2.69,31.33,10.06,45.66,4.96,9.63,11.34,18.16,19.38,25.44.92.83,1.7,1.34,3.01.59,5.66-3.26,11.74-5.58,17.8-7.96,6.41-2.52,12.83-5.01,18.5-9.1,2.42-1.74,3.69-3.94,3.91-6.89.23-3.02-.08-3.49-3.09-3.65-.76-.04-1.53-.03-2.3-.05-6.33-.2-12.46-1.37-18.32-3.83-3.13-1.31-6-3.05-8.49-5.39-1.05-.99-1.47-1.74.4-2.34,2.69-.85,4.48-2.88,6-5.13,1.77-2.63,2.94-5.53,3.77-8.58,2.03-7.46,2.49-15.08,2.37-22.75Z"/>
</svg>