<?xml version="1.0" encoding="UTF-8"?>
<svg id="Capa_1" xmlns="http://www.w3.org/2000/svg" version="1.1" viewBox="0 0 308.41 275.46">
  <!-- Generator: Adobe Illustrator 29.3.1, SVG Export Plug-In . SVG Version: 2.1.0 Build 151)  -->
  <defs>
    <style>
      .st0 {
        fill: #fff;
      }
    </style>
  </defs>
  <g id="F_-_748_x2C__Cloud_x2C__warm_x2C__weather">
    <g>
      <path class="st0" d="M88.95,202.34h131.11c36.27,0,65.56-29.28,65.56-65.56s-26.66-62.5-60.31-65.56c-2.62-36.71-33.21-65.56-70.8-65.56s-68.18,28.84-70.8,65.56c-33.65,2.62-60.31,31.03-60.31,65.56,0,36.27,29.28,65.56,65.55,65.56ZM88.95,82.16c3.06,0,5.68-2.62,5.68-5.68,0-33.22,27.1-60.31,60.31-60.31s59.87,27.1,59.87,59.87c0,.87-.87,10.49-6.12,20.98-7.87,15.3-20.98,24.47-38.89,28.84-3.06.87-4.81,3.5-3.94,6.56.88,3.06,3.5,4.81,6.56,3.93,26.66-6.56,39.77-22.29,46.32-34.53,3.94-7.87,5.69-15.3,6.56-19.67,27.53,2.62,49.38,26.22,49.38,54.63,0,30.16-24.47,54.63-54.63,54.63H88.95c-30.16,0-54.63-24.47-54.63-54.63s24.47-54.63,54.63-54.63Z"/>
      <path class="st0" d="M116.48,76.91c3.06,0,5.68-2.62,5.68-5.68,0-7.87,12.24-27.53,27.53-27.53,3.06,0,5.68-2.62,5.68-5.68s-2.62-5.68-5.68-5.68c-9.61,0-19.23,5.24-27.1,14.42-6.55,7.87-10.93,17.04-10.93,24.04-.87,3.5,1.75,6.12,4.81,6.12Z"/>
      <path class="st0" d="M99.87,229.88c0-3.06-2.62-5.68-5.68-5.68H28.63c-3.06,0-5.68,2.62-5.68,5.68s2.62,5.68,5.68,5.68h65.56c3.06-.44,5.68-3.06,5.68-5.68Z"/>
      <path class="st0" d="M127.4,224.2c-3.06,0-5.68,2.62-5.68,5.68s2.62,5.68,5.68,5.68h49.38c3.06,0,5.68-2.62,5.68-5.68s-2.62-5.68-5.68-5.68h-49.38Z"/>
      <path class="st0" d="M274.68,224.2h-65.56c-3.06,0-5.68,2.62-5.68,5.68s2.62,5.68,5.68,5.68h65.56c3.06,0,5.69-2.62,5.69-5.68s-2.62-5.68-5.69-5.68Z"/>
      <path class="st0" d="M127.4,256.97H61.85c-3.06,0-5.68,2.62-5.68,5.68s2.62,5.68,5.68,5.68h65.55c3.06,0,5.68-2.62,5.68-5.68-.44-3.06-3.06-5.68-5.68-5.68Z"/>
      <path class="st0" d="M241.91,256.97h-65.56c-3.06,0-5.68,2.62-5.68,5.68s2.62,5.68,5.68,5.68h65.56c3.06,0,5.68-2.62,5.68-5.68s-2.62-5.68-5.68-5.68Z"/>
    </g>
  </g>
</svg>