<?xml version="1.0" encoding="UTF-8"?>
<svg id="Capa_1" xmlns="http://www.w3.org/2000/svg" version="1.1" viewBox="0 0 308.41 275.46">
  <!-- Generator: Adobe Illustrator 29.3.1, SVG Export Plug-In . SVG Version: 2.1.0 Build 151)  -->
  <defs>
    <style>
      .st0 {
        fill: none;
        stroke: #fff;
        stroke-linecap: round;
        stroke-miterlimit: 10;
        stroke-width: 10.65px;
      }
    </style>
  </defs>
  <g>
    <path class="st0" d="M63.34,202.61c-19.52,0-35.4-15.88-35.4-35.4"/>
    <line class="st0" x1="106" y1="220.98" x2="106" y2="119.53"/>
  </g>
  <g>
    <path class="st0" d="M284.37,205.55l-.72.72c-19.61,19.61-51.4,19.61-71.01,0l-65.35-65.35c-19.61-19.61-19.61-51.4,0-71.01l.72-.72c19.61-19.61,51.4-19.61,71.01,0l65.35,65.35c19.61,19.61,19.61,51.4,0,71.01Z"/>
    <path class="st0" d="M162.79,130.44c-13.8-13.8-13.8-36.26,0-50.06"/>
    <line class="st0" x1="179.96" y1="173.59" x2="251.69" y2="101.86"/>
  </g>
  <path class="st0" d="M147.28,140.92c-6.17-6.17-10.4-13.56-12.69-21.38H59.79c-27.73,0-50.21,22.48-50.21,50.21v1.01c0,27.73,22.48,50.21,50.21,50.21h92.42c20.31,0,37.81-12.06,45.72-29.42l-50.64-50.64Z"/>
</svg>