<?xml version="1.0" encoding="UTF-8"?>
<svg id="Capa_1" xmlns="http://www.w3.org/2000/svg" version="1.1" viewBox="0 0 308.41 275.46">
  <!-- Generator: Adobe Illustrator 29.3.1, SVG Export Plug-In . SVG Version: 2.1.0 Build 151)  -->
  <defs>
    <style>
      .st0 {
        fill: #fff;
      }
    </style>
  </defs>
  <path class="st0" d="M204.45,262.75c-4.31-.73-8.67-1.28-12.94-2.22-16.21-3.56-31.05-10.56-45.43-18.59-22.35-12.47-42.28-28.11-59.7-46.84-21.24-22.84-38.8-48.11-49.87-77.51-4.03-10.7-6.99-21.66-7.29-33.2-.31-11.63,2.62-22.09,10.94-30.59,6.61-6.74,12.99-13.77,20.1-19.95,11-9.55,22.96-9.48,33.56.46,11.22,10.52,21.98,21.54,32.46,32.8,8.05,8.65,7.94,21.44.11,30.3-5.54,6.28-11.66,12.04-17.53,18.02-.51.52-1.09.97-2.06,1.83,16.11,28.74,38.32,51.07,67.27,67.16,4.84-4.9,9.4-9.54,13.98-14.15,3.74-3.76,7.51-7.48,12.66-9.34,8.47-3.05,16.54-2.04,23.01,4.11,11.74,11.16,23.18,22.64,34.29,34.42,7.83,8.3,8.1,21.36.61,30.01-7.18,8.29-14.98,16.07-22.88,23.7-5.58,5.39-12.68,8.11-20.39,9.12-.55.07-1.08.3-1.62.46h-9.29ZM207.94,248.55c8.83.04,15.5-2.56,20.94-8.25,5.29-5.53,10.7-10.95,16.04-16.42.68-.7,1.33-1.43,1.94-2.19,3.77-4.7,3.81-9.43-.27-13.86-4.3-4.66-8.88-9.08-13.36-13.58-5.8-5.83-11.58-11.68-17.48-17.41-4.32-4.19-9.17-4.24-13.75-.36-.87.74-1.67,1.55-2.48,2.36-5.59,5.58-11.14,11.2-16.78,16.73-4.04,3.97-8.51,4.69-13.4,2.22-3.41-1.72-6.83-3.45-10.11-5.4-14.73-8.78-27.55-19.9-39.13-32.49-10.23-11.12-19.56-22.88-25.86-36.78-3.33-7.35-2.62-10.94,3.15-16.55,5.95-5.79,11.92-11.57,17.63-17.6,4-4.22,3.86-8.68.2-13.18-.67-.82-1.4-1.59-2.14-2.34-9.2-9.23-18.39-18.45-27.61-27.66-5.95-5.94-11.18-6-17.12-.15-5.68,5.6-11.47,11.12-16.86,16.99-2.53,2.76-4.85,6.03-6.21,9.48-2.96,7.52-2.1,15.4-.52,23.11,2.42,11.86,6.93,23.02,12.27,33.84,9.43,19.11,21.7,36.29,35.91,52.1,25.12,27.95,54.91,49.21,90.28,62.32,8.28,3.07,16.89,4.76,24.7,5.09Z"/>
  <path class="st0" d="M279.22,124.94c-.06.06-.15.1-.18.17-1.51,4.19-3.97,6.24-7.24,6.03-3.98-.26-6.32-2.54-7.21-7.3-3.26-17.54-9.95-33.64-20.38-48.1-13.65-18.93-31.15-33.19-52.91-41.74-7.89-3.1-16.29-4.94-24.51-7.19-4.53-1.24-7.11-4.58-6.24-8.65.87-4.07,4.6-6.1,9.25-5.25,19.74,3.61,37.84,11.13,54.16,22.82,15.42,11.04,28.06,24.68,37.83,40.96,8.42,14.03,13.94,29.13,16.94,45.19.1.55.33,1.08.5,1.62v1.47Z"/>
  <path class="st0" d="M166.09,57.75c3.94,1.02,8.55,1.8,12.87,3.4,29.88,11.04,48.14,32.2,54.63,63.42.81,3.91-1.45,7.48-5.18,8.49-3.62.98-7.36-1.13-8.58-4.97-1.74-5.49-2.79-11.27-5.16-16.47-9.83-21.53-26.54-34.66-49.76-39.45-4-.82-6.26-3.14-6.46-6.53-.21-3.45,1.65-6.27,4.87-7.32.69-.22,1.42-.3,2.77-.57Z"/>
</svg>