<?xml version="1.0" encoding="UTF-8"?>
<svg id="Capa_1" xmlns="http://www.w3.org/2000/svg" version="1.1" viewBox="0 0 308.41 275.46">
  <!-- Generator: Adobe Illustrator 29.3.1, SVG Export Plug-In . SVG Version: 2.1.0 Build 151)  -->
  <defs>
    <style>
      .st0 {
        fill: #fff;
        stroke: #fff;
        stroke-miterlimit: 10;
        stroke-width: 3px;
      }
    </style>
  </defs>
  <g id="_x31_5744_-_Press_Conference">
    <g>
      <path class="st0" d="M222.35,271.01H86.14c-1.89,0-3.38-1.48-3.38-3.38v-118.5c0-1.89,1.48-3.38,3.38-3.38h136.21c1.89,0,3.38,1.48,3.38,3.38v118.5c0,1.89-1.48,3.38-3.38,3.38ZM89.52,264.26h129.46v-111.75H89.52v111.75Z"/>
      <path class="st0" d="M241.62,152.51H66.87c-6.09,0-11.12-5.02-11.12-11.12v-21.49c0-6.09,5.02-11.12,11.12-11.12h174.67c6.09,0,11.12,5.02,11.12,11.12v21.49c0,6.09-4.94,11.12-11.03,11.12ZM66.87,115.53c-2.39,0-4.36,1.98-4.36,4.36v21.49c0,2.39,1.98,4.36,4.36,4.36h174.67c2.39,0,4.36-1.98,4.36-4.36v-21.49c0-2.39-1.98-4.36-4.36-4.36H66.87Z"/>
      <path class="st0" d="M154.25,54.02c-13.67,0-24.79-11.12-24.79-24.79s11.12-24.79,24.79-24.79,24.79,11.12,24.79,24.79-11.12,24.79-24.79,24.79ZM154.25,11.28c-9.88,0-17.95,8.07-17.95,17.95s8.07,17.95,17.95,17.95,17.95-8.07,17.95-17.95-8.07-17.95-17.95-17.95Z"/>
      <path class="st0" d="M191.47,115.53h-74.45c-3.87,0-7.08-3.13-7.08-7.08v-24.21c0-13.59,11.12-24.71,24.71-24.71h12.43c1.89,0,3.38,1.48,3.38,3.38s-1.48,3.38-3.38,3.38h-12.43c-9.88,0-17.95,8.07-17.95,17.95v24.21c0,.16.16.25.25.25h74.45c.16,0,.25-.16.25-.25v-24.21c0-9.88-8.07-17.95-17.95-17.95h-12.43c-1.89,0-3.38-1.48-3.38-3.38s1.48-3.38,3.38-3.38h12.43c13.59,0,24.71,11.12,24.71,24.71v24.21c.16,3.95-3.05,7.08-6.92,7.08Z"/>
      <path class="st0" d="M154.25,85.89c-3.38,0-6.18-2.31-6.92-5.6l-3.62-16.63c-.41-1.81.74-3.62,2.64-4.04,1.81-.41,3.62.74,4.04,2.64l3.62,16.63c0,.16.08.25.25.25.25,0,.25-.08.25-.25l3.62-16.63c.41-1.81,2.22-2.96,4.04-2.64,1.81.41,2.96,2.22,2.64,4.04l-3.62,16.63c-.74,3.29-3.54,5.6-6.92,5.6Z"/>
      <g>
        <g>
          <path class="st0" d="M75.35,115.53c-1.89,0-3.38-1.48-3.38-3.38v-43.32c0-1.89,1.48-3.38,3.38-3.38s3.38,1.48,3.38,3.38v43.32c0,1.89-1.56,3.38-3.38,3.38Z"/>
          <path class="st0" d="M75.35,72.22c-1.07,0-2.14-.49-2.8-1.48-1.07-1.56-.66-3.62.91-4.69l17.62-11.78c1.56-1.07,3.62-.66,4.69.91s.66,3.62-.91,4.69l-17.62,11.78c-.66.41-1.24.58-1.89.58Z"/>
          <path class="st0" d="M98.99,62.75c-6.01,0-10.87-4.86-10.87-10.87s4.86-10.87,10.87-10.87,10.87,4.86,10.87,10.87-4.86,10.87-10.87,10.87ZM98.99,47.76c-2.31,0-4.12,1.81-4.12,4.12s1.81,4.12,4.12,4.12,4.12-1.81,4.12-4.12-1.89-4.12-4.12-4.12Z"/>
        </g>
        <g>
          <path class="st0" d="M233.14,115.53c-1.89,0-3.38-1.48-3.38-3.38v-43.32c0-1.89,1.48-3.38,3.38-3.38s3.38,1.48,3.38,3.38v43.32c.08,1.89-1.48,3.38-3.38,3.38Z"/>
          <path class="st0" d="M233.14,72.22c-.66,0-1.32-.16-1.89-.58l-17.62-11.78c-1.56-1.07-1.98-3.13-.91-4.69s3.13-1.98,4.69-.91l17.62,11.78c1.56,1.07,1.98,3.13.91,4.69-.58.91-1.65,1.48-2.8,1.48Z"/>
          <path class="st0" d="M209.5,62.75c-6.01,0-10.87-4.86-10.87-10.87s4.86-10.87,10.87-10.87,10.87,4.86,10.87,10.87-4.86,10.87-10.87,10.87ZM209.5,47.76c-2.31,0-4.12,1.81-4.12,4.12s1.81,4.12,4.12,4.12,4.12-1.81,4.12-4.12-1.81-4.12-4.12-4.12Z"/>
        </g>
      </g>
    </g>
  </g>
</svg>